<svg width="299" height="299" viewBox="0 0 299 299" fill="none" xmlns="http://www.w3.org/2000/svg">
<rect x="60" y="180" width="59" height="59" rx="4" fill="#C2C1C1"/>
<rect x="60" y="60" width="59" height="59" rx="4" fill="#C2C1C1"/>
<rect x="60" width="59" height="59" rx="4" fill="#D9D9D9"/>
<rect x="60" y="240" width="59" height="59" rx="4" fill="#D9D9D9"/>
<rect x="60" y="120" width="59" height="59" rx="4" fill="#A8A8A8"/>
<rect x="120" y="240" width="59" height="59" rx="4" fill="#B8B8B8"/>
<rect x="120" y="120" width="59" height="59" rx="4" fill="#777777"/>
<rect x="180" y="240" width="59" height="59" rx="4" fill="#D9D9D9"/>
<rect x="180" y="120" width="59" height="59" rx="4" fill="#A8A8A8"/>
<rect x="240" y="240" width="59" height="59" rx="4" fill="#CFCECE"/>
<rect x="240" y="120" width="59" height="59" rx="4" fill="#BFBFBF"/>
<rect y="240" width="59" height="59" rx="4" fill="#CFCECE"/>
<rect y="120" width="59" height="59" rx="4" fill="#BFBFBF"/>
<rect y="180" width="59" height="59" rx="4" fill="#D9D9D9"/>
<rect y="60" width="59" height="59" rx="4" fill="#D9D9D9"/>
<rect width="59" height="59" rx="4" fill="#CFCECE"/>
<rect x="120" y="180" width="59" height="59" rx="4" fill="#A8A8A8"/>
<rect x="120" y="60" width="59" height="59" rx="4" fill="#A8A8A8"/>
<rect x="120" width="59" height="59" rx="4" fill="#B8B8B8"/>
<rect x="180" y="180" width="59" height="59" rx="4" fill="#C2C1C1"/>
<rect x="180" y="60" width="59" height="59" rx="4" fill="#C2C1C1"/>
<rect x="180" width="59" height="59" rx="4" fill="#D9D9D9"/>
<rect x="240" y="180" width="59" height="59" rx="4" fill="#D9D9D9"/>
<rect x="240" y="60" width="59" height="59" rx="4" fill="#D9D9D9"/>
<rect x="240" width="59" height="59" rx="4" fill="#CFCECE"/>
</svg>
