<svg width="48" height="48" viewBox="0 0 48 48" fill="none" xmlns="http://www.w3.org/2000/svg">
<path d="M24.0001 35.5864C30.4139 35.5864 35.5864 30.3726 35.5864 24.0001C35.5864 17.6277 30.3726 12.4139 24.0001 12.4139C17.6277 12.4139 12.4139 17.6277 12.4139 24.0001C12.4139 30.3726 17.5864 35.5864 24.0001 35.5864ZM24.0001 15.7657C28.5519 15.7657 32.2346 19.4484 32.2346 24.0001C32.2346 28.5519 28.5519 32.2346 24.0001 32.2346C19.4484 32.2346 15.7657 28.5519 15.7657 24.0001C15.7657 19.4484 19.4484 15.7657 24.0001 15.7657Z" fill="#414348"/>
<path d="M25.6966 7.03448V1.69655C25.6966 0.744828 24.9517 0 24 0C23.0483 0 22.3035 0.744828 22.3035 1.69655V7.03448C22.3035 7.98621 23.0483 8.73103 24 8.73103C24.9517 8.73103 25.6966 7.98621 25.6966 7.03448Z" fill="#414348"/>
<path d="M22.3035 40.9654V46.3033C22.3035 47.2551 23.0483 47.9999 24 47.9999C24.9517 47.9999 25.6966 47.2551 25.6966 46.3033V40.9654C25.6966 40.0137 24.9517 39.2689 24 39.2689C23.0483 39.2689 22.3035 40.0137 22.3035 40.9654Z" fill="#414348"/>
<path d="M37.1999 13.2L40.9654 9.43451C41.6275 8.77245 41.6275 7.69658 40.9654 7.03452C40.3033 6.37245 39.2275 6.37245 38.5654 7.03452L34.7999 10.8C34.1378 11.4621 34.1378 12.538 34.7999 13.2C35.1309 13.5311 35.5447 13.6966 35.9999 13.6966C36.4551 13.6966 36.8689 13.5311 37.1999 13.2Z" fill="#414348"/>
<path d="M7.49655 40.6621C7.82759 40.9931 8.24138 41.1586 8.69655 41.1586C9.11034 41.1586 9.56552 40.9931 9.89655 40.6621L13.6621 36.8966C14.3241 36.2345 14.3241 35.1586 13.6621 34.4966C13 33.8345 11.9241 33.8345 11.2621 34.4966L7.49655 38.2621C6.83448 38.9241 6.83448 40 7.49655 40.6621Z" fill="#414348"/>
<path d="M47.9998 24C47.9998 23.0483 47.255 22.3035 46.3033 22.3035H40.9654C40.0136 22.3035 39.2688 23.0483 39.2688 24C39.2688 24.9517 40.0136 25.6966 40.9654 25.6966H46.3033C47.2136 25.6966 47.9998 24.9517 47.9998 24Z" fill="#414348"/>
<path d="M1.69655 25.6966H7.03448C7.98621 25.6966 8.73103 24.9517 8.73103 24C8.73103 23.0483 7.98621 22.3035 7.03448 22.3035H1.69655C0.744828 22.3035 0 23.0483 0 24C0 24.9517 0.786207 25.6966 1.69655 25.6966Z" fill="#414348"/>
<path d="M39.7654 41.462C40.1792 41.462 40.6344 41.2964 40.9654 40.9654C41.6275 40.3033 41.6275 39.2275 40.9654 38.5654L37.1999 34.7999C36.5378 34.1378 35.462 34.1378 34.7999 34.7999C34.1378 35.462 34.1378 36.5378 34.7999 37.1999L38.5654 40.9654C38.8964 41.2964 39.3516 41.462 39.7654 41.462Z" fill="#414348"/>
<path d="M13.2 13.2C13.8621 12.538 13.8621 11.4621 13.2 10.8L9.43451 7.03452C8.77245 6.37245 7.69658 6.37245 7.03452 7.03452C6.37245 7.69658 6.37245 8.77245 7.03452 9.43451L10.8 13.2C11.1311 13.5311 11.5449 13.6966 12 13.6966C12.4552 13.6966 12.869 13.5311 13.2 13.2Z" fill="#414348"/>
</svg>
