<svg width="174" height="168" viewBox="0 0 174 168" fill="none" xmlns="http://www.w3.org/2000/svg">
<path d="M162.12 0.52665C161.02 1.02665 157.62 4.22665 154.72 7.72665C151.92 11.2266 149.02 14.3266 148.42 14.7266C146.62 15.9266 142.42 15.5266 140.42 14.0266C139.32 13.2266 138.12 12.5266 137.72 12.5266C136.62 12.5266 133.82 15.5266 133.82 16.7266C133.82 18.0266 152.52 37.2266 155.12 38.6266C157.62 40.0266 160.82 38.7266 160.82 36.4266C160.82 35.3266 160.12 33.3266 159.22 32.0266C156.82 28.3266 158.12 25.3266 164.32 20.5266C171.42 15.0266 173.82 12.0266 173.82 8.42665C173.82 2.92665 167.22 -1.57335 162.12 0.52665Z" fill="#414348"/>
<path d="M62.3198 11.0266C46.6198 14.5266 29.7198 24.1266 21.1198 34.5266L18.9198 37.2266L32.3198 47.9266L45.8198 58.7266L50.0198 55.1266C55.5198 50.4266 62.8198 46.8266 70.0198 45.3266L75.8198 44.1266V26.8266V9.52656L72.1198 9.62656C70.0198 9.72656 65.6198 10.3266 62.3198 11.0266Z" fill="#414348"/>
<path d="M81.8198 26.7266V44.2266L86.0198 44.9266C88.3198 45.3266 93.1198 46.7266 96.6198 48.2266L103.12 50.7266L115.22 38.6266L127.32 26.4266L124.32 23.9266C116.92 17.7266 100.22 11.4266 87.6198 9.92656L81.8198 9.22656V26.7266Z" fill="#414348"/>
<path d="M111.02 49.8269L87.8198 73.1269V77.5269C87.8198 81.3269 87.3198 82.5269 83.7198 86.1269C81.0198 88.9269 79.7198 90.9269 80.1198 91.9269C81.1198 94.5269 84.2198 93.7269 87.8198 90.0269C90.4198 87.4269 92.0198 86.5269 94.6198 86.5269C96.4198 86.5269 98.9198 86.0269 100.12 85.4269C101.32 84.8269 112.52 74.1269 125.02 61.7269L147.82 39.0269L141.62 32.8269C138.22 29.3269 135.12 26.5269 134.82 26.5269C134.52 26.5269 123.82 37.0269 111.02 49.8269Z" fill="#414348"/>
<path d="M11.8197 46.4262C3.41974 59.6262 -0.780257 75.8262 0.119743 92.3262C0.419743 98.0262 0.819743 102.826 0.919743 103.026C1.21974 103.226 19.9197 99.1262 32.6197 96.0262C34.6197 95.5262 34.8197 94.9262 34.8197 89.2262C34.8197 81.6262 37.1197 72.4262 40.3197 67.0262L42.6197 62.9262L29.6197 52.5262C22.4197 46.7262 16.1197 41.9262 15.8197 41.7262C15.4197 41.6262 13.6197 43.7262 11.8197 46.4262Z" fill="#414348"/>
<path d="M133.42 60.4266L120.62 73.3266L121.82 80.2266C122.52 84.0266 122.92 89.0266 122.72 91.3266L122.32 95.4266L133.82 98.0266C140.12 99.5266 147.72 101.327 150.52 102.027C153.42 102.727 156.02 102.927 156.32 102.527C157.62 100.327 158.02 85.1266 156.92 77.5266C155.62 68.8266 151.12 55.0266 148.02 50.3266L146.22 47.6266L133.42 60.4266Z" fill="#414348"/>
<path d="M19.4198 104.426C10.6198 106.526 3.31976 108.626 3.11976 109.226C2.41976 111.126 8.31976 124.926 12.3198 130.926C14.4198 134.126 18.4198 139.226 21.2198 142.226C26.2198 147.826 39.1198 157.526 41.3198 157.526C42.0198 157.526 45.8198 150.726 49.8198 142.326L57.0198 127.126L53.2198 124.126C46.6198 118.926 42.9198 114.326 39.5198 107.326C37.7198 103.626 36.1198 100.626 35.8198 100.726C35.5198 100.726 28.1198 102.426 19.4198 104.426Z" fill="#414348"/>
<path d="M118.82 106.227C117.12 110.527 114.52 114.027 108.52 119.927L100.62 127.827L107.72 142.427C111.62 150.427 115.32 157.227 115.92 157.427C117.82 158.027 128.22 150.327 135.32 143.027C143.02 135.127 148.42 126.727 152.52 116.227C154.52 111.027 154.92 109.227 153.92 108.627C153.22 108.227 146.12 106.327 138.02 104.527C130.02 102.727 122.92 101.127 122.32 100.927C121.72 100.627 120.12 103.027 118.82 106.227Z" fill="#414348"/>
<path d="M54.7197 144.126C50.8197 152.326 47.6197 159.426 47.5197 159.926C47.2197 161.426 59.7197 165.326 68.8197 166.526C81.0197 168.226 96.9197 166.326 107.52 161.926L110.82 160.526L103.22 145.226C99.1197 136.926 95.1197 130.026 94.5197 130.026C93.8197 130.026 90.1197 130.726 86.1197 131.426C79.1197 132.826 72.1197 132.326 64.1197 129.926C62.0197 129.326 61.2197 130.426 54.7197 144.126Z" fill="#414348"/>
</svg>
