<svg width="36" height="36" viewBox="0 0 36 36" fill="none" xmlns="http://www.w3.org/2000/svg">
<path fill-rule="evenodd" clip-rule="evenodd" d="M28.1829 7.81768C22.5541 2.18904 13.4459 2.18904 7.81715 7.81768C2.20281 13.4319 2.20281 22.5688 7.81715 28.183C13.4459 33.8116 22.5541 33.8098 28.1829 28.183C33.8116 22.5544 33.8116 13.4463 28.1829 7.81768ZM30.7281 30.7282C23.6989 37.7573 12.3011 37.7573 5.27188 30.7282C-1.75729 23.6992 -1.75729 12.3015 5.27188 5.27246C12.3011 -1.75839 23.6989 -1.75659 30.7281 5.27246C37.7573 12.3015 37.7573 23.6992 30.7281 30.7282ZM25.6376 25.636L10.3642 10.3628C14.5817 6.14541 21.4201 6.14541 25.6376 10.3628C29.8551 14.5803 29.8551 21.4185 25.6376 25.636Z" fill="#414348"/>
</svg>
