<svg width="36" height="36" viewBox="0 0 36 36" fill="none" xmlns="http://www.w3.org/2000/svg">
<path d="M6.81081 23.6842C6.25946 23.6842 5.79697 23.5023 5.42335 23.1385C5.04973 22.7747 4.86357 22.3251 4.86486 21.7895C4.86486 21.2526 5.05168 20.8023 5.4253 20.4385C5.79892 20.0747 6.26076 19.8935 6.81081 19.8947C7.36216 19.8947 7.82465 20.0766 8.19827 20.4404C8.57189 20.8042 8.75805 21.2539 8.75676 21.7895C8.75676 22.3263 8.56994 22.7766 8.19632 23.1404C7.8227 23.5042 7.36086 23.6855 6.81081 23.6842ZM6.81081 31.2632C6.25946 31.2632 5.79697 31.0813 5.42335 30.7175C5.04973 30.3537 4.86357 29.904 4.86486 29.3684C4.86486 28.8316 5.05168 28.3813 5.4253 28.0175C5.79892 27.6537 6.26076 27.4724 6.81081 27.4737C7.36216 27.4737 7.82465 27.6556 8.19827 28.0194C8.57189 28.3832 8.75805 28.8328 8.75676 29.3684C8.75676 29.9053 8.56994 30.3556 8.19632 30.7194C7.8227 31.0832 7.36086 31.2644 6.81081 31.2632ZM6.81081 16.1053C6.25946 16.1053 5.79697 15.9234 5.42335 15.5596C5.04973 15.1958 4.86357 14.7461 4.86486 14.2105C4.86486 13.6737 5.05168 13.2234 5.4253 12.8596C5.79892 12.4958 6.26076 12.3145 6.81081 12.3158C7.36216 12.3158 7.82465 12.4977 8.19827 12.8615C8.57189 13.2253 8.75805 13.6749 8.75676 14.2105C8.75676 14.7474 8.56994 15.1977 8.19632 15.5615C7.8227 15.9253 7.36086 16.1065 6.81081 16.1053ZM0.972973 15.1579C0.713513 15.1579 0.486487 15.0632 0.291892 14.8737C0.0972975 14.6842 0 14.4632 0 14.2105C0 13.9579 0.0972975 13.7368 0.291892 13.5474C0.486487 13.3579 0.713513 13.2632 0.972973 13.2632C1.23243 13.2632 1.45946 13.3579 1.65405 13.5474C1.84865 13.7368 1.94595 13.9579 1.94595 14.2105C1.94595 14.4632 1.84865 14.6842 1.65405 14.8737C1.45946 15.0632 1.23243 15.1579 0.972973 15.1579ZM6.81081 8.52632C6.25946 8.52632 5.79697 8.34442 5.42335 7.98063C5.04973 7.61684 4.86357 7.16716 4.86486 6.63158C4.86486 6.09474 5.05168 5.64442 5.4253 5.28063C5.79892 4.91684 6.26076 4.73558 6.81081 4.73684C7.36216 4.73684 7.82465 4.91874 8.19827 5.28253C8.57189 5.64632 8.75805 6.096 8.75676 6.63158C8.75676 7.16842 8.56994 7.61874 8.19632 7.98253C7.8227 8.34632 7.36086 8.52758 6.81081 8.52632ZM0.972973 22.7368C0.713513 22.7368 0.486487 22.6421 0.291892 22.4526C0.0972975 22.2632 0 22.0421 0 21.7895C0 21.5368 0.0972975 21.3158 0.291892 21.1263C0.486487 20.9368 0.713513 20.8421 0.972973 20.8421C1.23243 20.8421 1.45946 20.9368 1.65405 21.1263C1.84865 21.3158 1.94595 21.5368 1.94595 21.7895C1.94595 22.0421 1.84865 22.2632 1.65405 22.4526C1.45946 22.6421 1.23243 22.7368 0.972973 22.7368ZM14.5946 36C14.3351 36 14.1081 35.9053 13.9135 35.7158C13.7189 35.5263 13.6216 35.3053 13.6216 35.0526C13.6216 34.8 13.7189 34.5789 13.9135 34.3895C14.1081 34.2 14.3351 34.1053 14.5946 34.1053C14.8541 34.1053 15.0811 34.2 15.2757 34.3895C15.4703 34.5789 15.5676 34.8 15.5676 35.0526C15.5676 35.3053 15.4703 35.5263 15.2757 35.7158C15.0811 35.9053 14.8541 36 14.5946 36ZM14.5946 1.89474C14.3351 1.89474 14.1081 1.8 13.9135 1.61053C13.7189 1.42105 13.6216 1.2 13.6216 0.947368C13.6216 0.694737 13.7189 0.473684 13.9135 0.284211C14.1081 0.094737 14.3351 0 14.5946 0C14.8541 0 15.0811 0.094737 15.2757 0.284211C15.4703 0.473684 15.5676 0.694737 15.5676 0.947368C15.5676 1.2 15.4703 1.42105 15.2757 1.61053C15.0811 1.8 14.8541 1.89474 14.5946 1.89474ZM14.5946 8.52632C14.0432 8.52632 13.5808 8.34442 13.2071 7.98063C12.8335 7.61684 12.6474 7.16716 12.6486 6.63158C12.6486 6.09474 12.8355 5.64442 13.2091 5.28063C13.5827 4.91684 14.0445 4.73558 14.5946 4.73684C15.1459 4.73684 15.6084 4.91874 15.9821 5.28253C16.3557 5.64632 16.5418 6.096 16.5405 6.63158C16.5405 7.16842 16.3537 7.61874 15.9801 7.98253C15.6065 8.34632 15.1446 8.52758 14.5946 8.52632ZM14.5946 24.6316C13.7838 24.6316 13.0943 24.3549 12.5261 23.8017C11.9578 23.2484 11.6744 22.5777 11.6757 21.7895C11.6757 21 11.9598 20.3286 12.528 19.7754C13.0962 19.2221 13.7851 18.9461 14.5946 18.9474C15.4054 18.9474 16.0949 19.224 16.6631 19.7773C17.2313 20.3305 17.5148 21.0013 17.5135 21.7895C17.5135 22.5789 17.2294 23.2503 16.6612 23.8036C16.093 24.3568 15.4041 24.6328 14.5946 24.6316ZM14.5946 17.0526C13.7838 17.0526 13.0943 16.776 12.5261 16.2227C11.9578 15.6695 11.6744 14.9987 11.6757 14.2105C11.6757 13.4211 11.9598 12.7497 12.528 12.1964C13.0962 11.6432 13.7851 11.3672 14.5946 11.3684C15.4054 11.3684 16.0949 11.6451 16.6631 12.1983C17.2313 12.7516 17.5148 13.4223 17.5135 14.2105C17.5135 15 17.2294 15.6714 16.6612 16.2246C16.093 16.7779 15.4041 17.0539 14.5946 17.0526ZM14.5946 31.2632C14.0432 31.2632 13.5808 31.0813 13.2071 30.7175C12.8335 30.3537 12.6474 29.904 12.6486 29.3684C12.6486 28.8316 12.8355 28.3813 13.2091 28.0175C13.5827 27.6537 14.0445 27.4724 14.5946 27.4737C15.1459 27.4737 15.6084 27.6556 15.9821 28.0194C16.3557 28.3832 16.5418 28.8328 16.5405 29.3684C16.5405 29.9053 16.3537 30.3556 15.9801 30.7194C15.6065 31.0832 15.1446 31.2644 14.5946 31.2632ZM18.4865 35.0526V0.947368C20.8865 0.947368 23.149 1.39768 25.2739 2.29832C27.3989 3.19895 29.2553 4.42232 30.8432 5.96842C32.4324 7.51579 33.6895 9.324 34.6145 11.3931C35.5395 13.4621 36.0013 15.6644 36 18C36 20.3368 35.5375 22.5398 34.6125 24.6088C33.6876 26.6779 32.4311 28.4855 30.8432 30.0316C29.2541 31.5789 27.397 32.8029 25.272 33.7036C23.147 34.6042 20.8852 35.0539 18.4865 35.0526Z" fill="#414348"/>
</svg>
