<svg width="478" height="386" viewBox="0 0 478 386" fill="none" xmlns="http://www.w3.org/2000/svg">
<path d="M360.5 333L370.5 297L400.5 322L360.5 333Z" fill="#D9D9D9"/>
<path d="M313 163L310 74L244.5 126L313 163Z" fill="#414348"/>
<path d="M344 123.5L330 60.5L391.5 88.5L344 123.5Z" fill="#D9D9D9"/>
<path d="M257.5 253.5V184.5L324.5 214.5L257.5 253.5Z" fill="#A8A8A8"/>
<path d="M302 341L261.5 290.5L329.5 288.5L302 341Z" fill="#414348"/>
<path d="M0 0L447.5 1.04403L370.5 45.5H77.9423L222.857 296.5V386L0 0Z" fill="#414348"/>
<path d="M153.662 151L175.5 69.5L232 136.5L153.662 151Z" fill="#D9D9D9"/>
<path d="M360.5 333L370.5 297.5L399.5 322.5L360.5 333Z" fill="#414348"/>
<path d="M337.5 249.5L367.5 224L371 267L337.5 249.5Z" fill="#A8A8A8"/>
<path d="M336.5 198L380 157L403 218L336.5 198Z" fill="#D9D9D9"/>
<path d="M411.5 119.5L428.5 80.5L450.5 111L411.5 119.5Z" fill="#414348"/>
<path d="M437 211L448 175L478 200.5L437 211Z" fill="#A8A8A8"/>
</svg>
