<svg width="226" height="226" viewBox="0 0 226 226" fill="none" xmlns="http://www.w3.org/2000/svg">
<path d="M0 17V34H32H64V49V64H48H32V80V96H16H0V113V130H16H32V146V162H49H66V146V130H82H98V114V98H130H162V82V66H178H194V49V32H178H162V16V-2.41399e-06H145H128V17V34H144H160V49V64H129H98V32V-2.41399e-06H49H0V17ZM96 81V96H81H66V81V66H81H96V81ZM64 113V128H49H34V113V98H49H64V113Z" fill="#414348"/>
<path d="M160 145V162H176H192V194V226H209H226V193V160H210H194V144V128H177H160V145Z" fill="#414348"/>
<path d="M96 177V194H112H128V210V226H145H162V209V192H146H130V176V160H113H96V177Z" fill="#414348"/>
<path d="M32 209V226H49H66V209V192H49H32V209Z" fill="#414348"/>
</svg>
