<svg width="36" height="36" viewBox="0 0 36 36" fill="none" xmlns="http://www.w3.org/2000/svg">
<g clip-path="url(#clip0_160_11)">
<path fill-rule="evenodd" clip-rule="evenodd" d="M18 0C22.7739 0 27.3523 1.89642 30.7279 5.27208C34.1036 8.64773 36 13.2261 36 18C36 22.7739 34.1036 27.3523 30.7279 30.7279C27.3523 34.1036 22.7739 36 18 36C13.2261 36 8.64773 34.1036 5.27208 30.7279C1.89642 27.3523 0 22.7739 0 18C0 13.2261 1.89642 8.64773 5.27208 5.27208C8.64773 1.89642 13.2261 0 18 0ZM32.7857 18C32.7857 14.0786 31.2279 10.3178 28.4551 7.54492C25.6822 4.77206 21.9214 3.21429 18 3.21429C14.0786 3.21429 10.3178 4.77206 7.54492 7.54492C4.77206 10.3178 3.21429 14.0786 3.21429 18C3.21429 21.9214 4.77206 25.6822 7.54492 28.4551C10.3178 31.2279 14.0786 32.7857 18 32.7857C21.9214 32.7857 25.6822 31.2279 28.4551 28.4551C31.2279 25.6822 32.7857 21.9214 32.7857 18ZM14.5671 5.83714C15.0786 5.83714 15.5692 6.04033 15.9308 6.40201C16.2925 6.76369 16.4957 7.25423 16.4957 7.76571C16.4957 8.2772 16.2925 8.76774 15.9308 9.12942C15.5692 9.4911 15.0786 9.69429 14.5671 9.69429C14.0557 9.69429 13.5651 9.4911 13.2034 9.12942C12.8418 8.76774 12.6386 8.2772 12.6386 7.76571C12.6386 7.25423 12.8418 6.76369 13.2034 6.40201C13.5651 6.04033 14.0557 5.83714 14.5671 5.83714ZM21.4251 5.83714C21.9366 5.83714 22.4272 6.04033 22.7889 6.40201C23.1505 6.76369 23.3537 7.25423 23.3537 7.76571C23.3537 8.2772 23.1505 8.76774 22.7889 9.12942C22.4272 9.4911 21.9366 9.69429 21.4251 9.69429C20.9137 9.69429 20.4231 9.4911 20.0614 9.12942C19.6998 8.76774 19.4966 8.2772 19.4966 7.76571C19.4966 7.25423 19.6998 6.76369 20.0614 6.40201C20.4231 6.04033 20.9137 5.83714 21.4251 5.83714ZM16.4983 28.2343C16.4983 27.981 16.4484 27.7302 16.3515 27.4963C16.2546 27.2623 16.1125 27.0497 15.9334 26.8706C15.7543 26.6915 15.5417 26.5494 15.3077 26.4525C15.0738 26.3556 14.823 26.3057 14.5697 26.3057C14.3164 26.3057 14.0657 26.3556 13.8317 26.4525C13.5977 26.5494 13.3851 26.6915 13.206 26.8706C13.0269 27.0497 12.8849 27.2623 12.7879 27.4963C12.691 27.7302 12.6411 27.981 12.6411 28.2343C12.6411 28.7458 12.8443 29.2363 13.206 29.598C13.5677 29.9597 14.0582 30.1629 14.5697 30.1629C15.0812 30.1629 15.5717 29.9597 15.9334 29.598C16.2951 29.2363 16.4983 28.7458 16.4983 28.2343ZM7.76829 12.6437C8.27977 12.6437 8.77031 12.8469 9.13199 13.2086C9.49367 13.5703 9.69686 14.0608 9.69686 14.5723C9.69686 15.0838 9.49367 15.5743 9.13199 15.936C8.77031 16.2977 8.27977 16.5009 7.76829 16.5009C7.2568 16.5009 6.76626 16.2977 6.40458 15.936C6.0429 15.5743 5.83971 15.0838 5.83971 14.5723C5.83971 14.0608 6.0429 13.5703 6.40458 13.2086C6.76626 12.8469 7.2568 12.6437 7.76829 12.6437ZM9.69686 21.4277C9.69686 20.9162 9.49367 20.4257 9.13199 20.064C8.77031 19.7023 8.27977 19.4991 7.76829 19.4991C7.2568 19.4991 6.76626 19.7023 6.40458 20.064C6.0429 20.4257 5.83971 20.9162 5.83971 21.4277C5.83971 21.9392 6.0429 22.4297 6.40458 22.7914C6.76626 23.1531 7.2568 23.3563 7.76829 23.3563C8.27977 23.3563 8.77031 23.1531 9.13199 22.7914C9.49367 22.4297 9.69686 21.9392 9.69686 21.4277ZM28.2317 12.6437C28.7432 12.6437 29.2337 12.8469 29.5954 13.2086C29.9571 13.5703 30.1603 14.0608 30.1603 14.5723C30.1603 15.0838 29.9571 15.5743 29.5954 15.936C29.2337 16.2977 28.7432 16.5009 28.2317 16.5009C27.7202 16.5009 27.2297 16.2977 26.868 15.936C26.5063 15.5743 26.3031 15.0838 26.3031 14.5723C26.3031 14.0608 26.5063 13.5703 26.868 13.2086C27.2297 12.8469 27.7202 12.6437 28.2317 12.6437ZM30.1603 21.4277C30.1603 20.9162 29.9571 20.4257 29.5954 20.064C29.2337 19.7023 28.7432 19.4991 28.2317 19.4991C27.7202 19.4991 27.2297 19.7023 26.868 20.064C26.5063 20.4257 26.3031 20.9162 26.3031 21.4277C26.3031 21.9392 26.5063 22.4297 26.868 22.7914C27.2297 23.1531 27.7202 23.3563 28.2317 23.3563C28.7432 23.3563 29.2337 23.1531 29.5954 22.7914C29.9571 22.4297 30.1603 21.9392 30.1603 21.4277ZM21.4277 26.3031C21.9392 26.3031 22.4297 26.5063 22.7914 26.868C23.1531 27.2297 23.3563 27.7202 23.3563 28.2317C23.3563 28.7432 23.1531 29.2337 22.7914 29.5954C22.4297 29.9571 21.9392 30.1603 21.4277 30.1603C20.9162 30.1603 20.4257 29.9571 20.064 29.5954C19.7023 29.2337 19.4991 28.7432 19.4991 28.2317C19.4991 27.7202 19.7023 27.2297 20.064 26.868C20.4257 26.5063 20.9162 26.3031 21.4277 26.3031ZM14.4643 11.8929C15.1463 11.8929 15.8003 12.1638 16.2826 12.646C16.7648 13.1282 17.0357 13.7823 17.0357 14.4643C17.0357 15.1463 16.7648 15.8003 16.2826 16.2826C15.8003 16.7648 15.1463 17.0357 14.4643 17.0357C13.7823 17.0357 13.1282 16.7648 12.646 16.2826C12.1638 15.8003 11.8929 15.1463 11.8929 14.4643C11.8929 13.7823 12.1638 13.1282 12.646 12.646C13.1282 12.1638 13.7823 11.8929 14.4643 11.8929ZM24.1071 14.4643C24.1071 13.7823 23.8362 13.1282 23.354 12.646C22.8718 12.1638 22.2177 11.8929 21.5357 11.8929C20.8537 11.8929 20.1997 12.1638 19.7174 12.646C19.2352 13.1282 18.9643 13.7823 18.9643 14.4643C18.9643 15.1463 19.2352 15.8003 19.7174 16.2826C20.1997 16.7648 20.8537 17.0357 21.5357 17.0357C22.2177 17.0357 22.8718 16.7648 23.354 16.2826C23.8362 15.8003 24.1071 15.1463 24.1071 14.4643ZM14.4643 18.9643C15.1463 18.9643 15.8003 19.2352 16.2826 19.7174C16.7648 20.1997 17.0357 20.8537 17.0357 21.5357C17.0357 22.2177 16.7648 22.8718 16.2826 23.354C15.8003 23.8362 15.1463 24.1071 14.4643 24.1071C13.7823 24.1071 13.1282 23.8362 12.646 23.354C12.1638 22.8718 11.8929 22.2177 11.8929 21.5357C11.8929 20.8537 12.1638 20.1997 12.646 19.7174C13.1282 19.2352 13.7823 18.9643 14.4643 18.9643ZM24.1071 21.5357C24.1071 20.8537 23.8362 20.1997 23.354 19.7174C22.8718 19.2352 22.2177 18.9643 21.5357 18.9643C20.8537 18.9643 20.1997 19.2352 19.7174 19.7174C19.2352 20.1997 18.9643 20.8537 18.9643 21.5357C18.9643 22.2177 19.2352 22.8718 19.7174 23.354C20.1997 23.8362 20.8537 24.1071 21.5357 24.1071C22.2177 24.1071 22.8718 23.8362 23.354 23.354C23.8362 22.8718 24.1071 22.2177 24.1071 21.5357Z" fill="#414348"/>
</g>
<defs>
<clipPath id="clip0_160_11">
<rect width="36" height="36" fill="white"/>
</clipPath>
</defs>
</svg>
