<svg width="533" height="533" viewBox="0 0 533 533" fill="none" xmlns="http://www.w3.org/2000/svg">
<path d="M37.6431 22.319C34.645 23.3184 33.3125 31.6465 33.3125 46.6371V69.2896L92.2756 131.917C124.589 166.562 164.231 208.869 180.554 225.525L210.202 256.506H266.5H322.798L352.446 225.525C368.769 208.869 408.411 166.562 440.724 131.917L499.687 69.2896V46.6371C499.687 28.9815 498.355 23.6515 494.357 21.9859C488.028 19.654 43.6394 19.654 37.6431 22.319Z" fill="#414348"/>
<path d="M203.873 360.441L204.872 444.722L262.503 479.367C309.806 507.682 320.799 513.012 324.797 509.681C329.128 506.017 329.794 488.028 329.794 391.088V276.493H266.5H203.206L203.873 360.441Z" fill="#A8A8A8"/>
</svg>
