<svg width="36" height="34" viewBox="0 0 36 34" fill="none" xmlns="http://www.w3.org/2000/svg">
<path d="M30.6221 12.1188L30.2195 13.0809C30.1566 13.2376 30.0505 13.3714 29.9145 13.4656C29.7785 13.5597 29.6187 13.6099 29.4553 13.6099C29.2919 13.6099 29.1321 13.5597 28.9961 13.4656C28.8602 13.3714 28.754 13.2376 28.6911 13.0809L28.2886 12.1188C27.5808 10.4167 26.2846 9.05201 24.6557 8.29399L23.4137 7.71772C23.263 7.64572 23.1354 7.53034 23.0459 7.38527C22.9564 7.24019 22.9089 7.07151 22.9089 6.89921C22.9089 6.72692 22.9564 6.55823 23.0459 6.41316C23.1354 6.26809 23.263 6.15271 23.4137 6.08071L24.587 5.53844C26.2568 4.75883 27.5752 3.34366 28.2706 1.58445L28.6846 0.545808C28.7454 0.384919 28.8514 0.246791 28.9889 0.149432C29.1264 0.0520735 29.2889 0 29.4553 0C29.6217 0 29.7842 0.0520735 29.9217 0.149432C30.0592 0.246791 30.1653 0.384919 30.2261 0.545808L30.6401 1.58275C31.3347 3.34229 32.6525 4.75807 34.322 5.53844L35.4969 6.08241C35.6471 6.15462 35.7743 6.26998 35.8635 6.41487C35.9526 6.55975 36 6.72811 36 6.90006C36 7.07202 35.9526 7.24038 35.8635 7.38526C35.7743 7.53015 35.6471 7.64551 35.4969 7.71772L34.2533 8.29229C32.6247 9.05107 31.3291 10.4164 30.6221 12.1188ZM1.62332 3.40165H19.6369V6.80147H3.27281V30.6002L19.6369 13.6011L29.4553 23.8006V17.0009H32.7281V32.312C32.7251 32.7584 32.5532 33.1857 32.2495 33.5016C31.9457 33.8174 31.5346 33.9964 31.1048 34H1.62332C1.19263 33.9996 0.779742 33.8215 0.475359 33.505C0.170975 33.1885 -2.18387e-07 32.7594 0 32.312V5.08966C0.0029947 4.64323 0.174932 4.21594 0.47867 3.9001C0.782408 3.58425 1.19356 3.40521 1.62332 3.40165ZM29.4553 28.6079L19.6369 18.4084L7.90057 30.6002H29.4553V28.6079ZM9.81844 17.0009C8.95043 17.0009 8.11798 16.6427 7.50421 16.0051C6.89044 15.3675 6.54563 14.5028 6.54563 13.6011C6.54563 12.6994 6.89044 11.8347 7.50421 11.1971C8.11798 10.5595 8.95043 10.2013 9.81844 10.2013C10.6864 10.2013 11.5189 10.5595 12.1327 11.1971C12.7464 11.8347 13.0913 12.6994 13.0913 13.6011C13.0913 14.5028 12.7464 15.3675 12.1327 16.0051C11.5189 16.6427 10.6864 17.0009 9.81844 17.0009Z" fill="#414348"/>
</svg>
