<svg width="332" height="309" viewBox="0 0 332 309" fill="none" xmlns="http://www.w3.org/2000/svg">
<path d="M135.5 25.5449V36.0449H125H114.5V46.5449V56.9449L103.8 57.2449L93 57.5449L92.7 68.2449L92.4 79.0449H82H71.5V89.5449V100.045H61H50.5V110.545V120.945L39.8 121.245L29 121.545L28.8 131.845L28.7 142.245L18.3 142.345L8 142.545V153.045V163.545L18.5 163.645L28.9 163.845L29 174.145V184.545L39.8 184.845L50.5 185.145V195.545V206.045H61H71.5V216.545V227.045H82H92.4L92.7 237.745L93 248.545L103.8 248.845L114.5 249.145V259.545V270.045H125H135.5V280.545V291.045H143.5H151.5V153.045V15.0449H143.5H135.5V25.5449Z" fill="black" fill-opacity="0.1"/>
<path d="M127.5 25.5449V36.0449H117H106.5V46.5449V56.9449L95.8 57.2449L85 57.5449L84.7 68.2449L84.4 79.0449H74H63.5V89.5449V100.045H53H42.5V110.545V120.945L31.8 121.245L21 121.545L20.8 131.845L20.7 142.245L10.3 142.345L0 142.545V153.045V163.545L10.5 163.645L20.9 163.845L21 174.145V184.545L31.8 184.845L42.5 185.145V195.545V206.045H53H63.5V216.545V227.045H74H84.4L84.7 237.745L85 248.545L95.8 248.845L106.5 249.145V259.545V270.045H117H127.5V280.545V291.045H135.5H143.5V153.045V15.0449H135.5H127.5V25.5449Z" fill="black" fill-opacity="0.1"/>
<path d="M177 153.645V308.545L254.4 231.145L331.9 153.645L328.1 149.645C323.4 144.545 180.5 1.74492 178.5 0.0449173C177.2 -1.05508 177 17.3449 177 153.645Z" fill="#414348"/>
<path d="M150.5 25.5449V36.0449H140H129.5V46.5449V56.9449L118.8 57.2449L108 57.5449L107.7 68.2449L107.4 79.0449H97H86.5V89.5449V100.045H76H65.5V110.545V120.945L54.8 121.245L44 121.545L43.8 131.845L43.7 142.245L33.3 142.345L23 142.545V153.045V163.545L33.5 163.645L43.9 163.845L44 174.145V184.545L54.8 184.845L65.5 185.145V195.545V206.045H76H86.5V216.545V227.045H97H107.4L107.7 237.745L108 248.545L118.8 248.845L129.5 249.145V259.545V270.045H140H150.5V280.545V291.045H158.5H166.5V153.045V15.0449H158.5H150.5V25.5449Z" fill="black" fill-opacity="0.1"/>
</svg>
